# xmcd
#
# Track frame offsets:
#	150
#	21741
#	38579
#	54218
#	71197
#	95381
#	123675
#	142977
#	162706
#	185036
#	206151
#	239856
#	261405
#	281086
#
# Disc length: 3969
#
# Revision: 1
# Processed by: cddbd v1.5.1PL0 Copyright (c) Steve Scherf et al.
# Submitted via: CDex 1.50
# Normalized: r0:TDELIM( - )
#
DISCID=e70f7f0e
DTITLE=Various Artist - NAV November 2001 Sampler
DYEAR=2001
DGENRE=New Age
TTITLE0=Kitaro - Jesu, Joy of Man's Desiring
TTITLE1=Jim Brickman - The Gift
TTITLE2=Jim Brickman - Simple Things
TTITLE3=Deepak Chopra and Dave Stewart - Everything is Music
TTITLE4=George Winston - Stars
TTITLE5=Richard Carr - Christmas Fireside
TTITLE6=Lorraine Rousseau and Robert Carlton - Huron Carol
TTITLE7=Etta James - Winter Wonderland
TTITLE8=Lost at Last - Kachina
TTITLE9=Mannheim Steamroller - Hallelujah
TTITLE10=Karen Mitchell and Valerie Miller - Angels
TTITLE11=Cassandra Delaney Denver - Give It Up to Love
TTITLE12=Cassandra Delaney Denver - Jerusalem
TTITLE13=Lara and Reyes - Angels We Have Heard on High
EXTD=YEAR: 2001
EXTT0=
EXTT1=
EXTT2=
EXTT3=
EXTT4=
EXTT5=
EXTT6=
EXTT7=
EXTT8=
EXTT9=
EXTT10=
EXTT11=
EXTT12=
EXTT13=
PLAYORDER=
